<svg width="1942" height="505" viewBox="0 0 1942 505" fill="none" xmlns="http://www.w3.org/2000/svg">
<mask id="path-1-outside-1_1203_38836" maskUnits="userSpaceOnUse" x="0" y="0" width="1942" height="505" fill="black">
<rect fill="white" width="1942" height="505"/>
<path d="M100.166 250.014C73.6754 245.225 52.5195 233.621 36.6985 215.203C21.2455 196.785 13.5189 173.947 13.5189 146.688C13.5189 108.379 28.604 75.7785 58.7743 48.8881C89.3124 21.6294 126.473 8 170.257 8C216.616 8 254.697 22.9186 284.499 52.7559C316.141 84.435 331.962 126.612 331.962 179.288C331.962 239.331 316.325 289.981 285.051 331.237C255.984 369.915 223.239 389.254 186.814 389.254C174.672 389.254 159.955 385.202 142.662 377.098C120.218 366.416 106.053 360.338 100.166 358.864C85.4491 371.02 73.3075 379.308 63.7413 383.729C54.1751 388.149 43.3212 390.359 31.1796 390.359C15.7265 390.359 8 384.281 8 372.125C8 362.18 13.151 352.602 23.453 343.393C36.6985 331.606 55.2789 324.054 79.1943 320.739C87.2888 307.11 94.2794 283.534 100.166 250.014ZM122.794 320.186C147.813 328.659 173.016 336.947 198.403 345.051C222.319 345.051 243.659 328.843 262.423 296.427C281.188 264.011 290.57 227.175 290.57 185.919C290.57 143.189 279.532 109.299 257.456 84.2508C235.748 58.8339 206.314 46.1254 169.153 46.1254C137.879 46.1254 111.204 55.7028 89.1284 74.8576C67.0527 94.0124 56.0148 117.588 56.0148 145.583C56.0148 179.472 73.4914 202.311 108.445 214.098C119.483 176.525 127.945 148.53 133.832 130.112C139.719 111.325 146.157 94.1966 153.148 78.7254L170.809 77.6203C174.856 77.6203 179.087 77.9887 183.502 78.7254C187.917 79.0938 192.333 79.4622 196.748 79.8305C189.389 99.3537 181.663 123.85 173.568 153.319C166.946 178.367 161.427 202.311 157.011 225.149C163.266 225.149 167.497 225.149 169.705 225.149C176.328 225.149 183.318 224.597 190.677 223.492C188.837 238.594 174.672 248.172 148.181 252.224C141.19 279.482 132.728 302.137 122.794 320.186Z"/>
<path d="M584.729 283.719V330.132C528.068 371.02 473.063 391.464 419.713 391.464C400.213 391.464 385.312 383.545 375.01 367.705C365.075 351.497 360.108 333.263 360.108 313.003C360.108 272.852 372.066 237.305 395.982 206.363C419.897 175.052 447.492 159.397 478.766 159.397C508.2 159.397 522.917 173.394 522.917 201.39C522.917 226.438 510.04 248.356 484.285 267.142C470.671 277.088 448.595 288.323 418.057 300.847L406.468 305.82V308.031C406.468 320.555 408.491 330.685 412.538 338.42C418.425 349.84 427.807 355.549 440.685 355.549C462.761 355.549 485.02 350.024 507.464 338.973C529.908 327.554 555.663 309.136 584.729 283.719ZM411.986 269.353C434.798 260.88 453.011 251.119 466.624 240.068C480.237 228.649 487.044 217.414 487.044 206.363C487.044 198.259 482.813 194.207 474.351 194.207C462.209 194.207 449.883 201.758 437.374 216.861C424.864 231.595 416.402 249.093 411.986 269.353Z"/>
<path d="M583.626 287.034L592.456 276.536C608.277 259.223 621.706 243.199 632.744 228.464C645.254 211.888 656.844 194.391 667.513 175.973C664.57 173.394 663.098 170.632 663.098 167.685C663.098 155.529 665.858 144.294 671.377 133.98C677.264 123.666 685.726 118.508 696.764 118.508L722.151 119.614C729.142 121.087 732.637 124.586 732.637 130.112C732.637 136.742 729.142 145.031 722.151 154.976C715.528 164.922 709.273 174.131 703.387 182.603C714.792 196.601 722.519 208.389 726.566 217.966C730.981 227.175 733.189 237.121 733.189 247.803C733.189 264.011 730.245 281.508 724.359 300.295C718.84 318.713 710.929 335.842 700.627 351.681C717.184 351.681 740.363 339.525 770.166 315.214C782.675 304.899 795.185 294.401 807.695 283.719V330.685L799.416 337.315C776.237 354.26 757.104 366.6 742.019 374.336C727.302 382.071 714.424 385.939 703.387 385.939C695.66 385.939 685.542 383.36 673.032 378.203C666.778 381.887 659.787 384.65 652.06 386.492C644.702 388.333 635.504 389.254 624.466 389.254C616.003 389.254 610.116 388.149 606.805 385.939C603.862 383.36 602.39 378.756 602.39 372.125C602.39 360.338 603.494 351.497 605.701 345.603C608.277 339.71 611.956 336.763 616.739 336.763C621.154 336.763 627.409 337.499 635.504 338.973C643.598 340.446 649.669 341.183 653.716 341.183C660.339 341.183 668.065 329.211 676.896 305.268C686.094 281.324 690.693 262.169 690.693 247.803C690.693 241.91 690.141 236.2 689.037 230.675C687.934 225.149 685.358 219.44 681.311 213.546C661.811 242.646 646.725 263.827 636.055 277.088C623.546 292.928 606.069 311.53 583.626 332.895V287.034Z"/>
<path d="M956.706 283.719V330.685C942.357 345.051 925.248 358.128 905.38 369.915C881.832 383.913 861.964 390.912 845.775 390.912C832.162 390.912 823.148 381.334 818.732 362.18C816.525 352.602 815.421 337.499 815.421 316.871C815.421 296.98 818.548 274.141 824.803 248.356C831.058 222.571 839.704 195.68 850.742 167.685H897.101L891.582 184.261C880.177 218.519 872.082 245.962 867.299 266.59C862.516 287.218 860.125 305.084 860.125 320.186C860.125 337.868 863.62 346.708 870.611 346.708C879.809 346.708 897.469 335.658 923.592 313.556C934.63 303.979 945.668 294.033 956.706 283.719ZM902.62 47.7831C920.649 47.7831 929.663 52.9401 929.663 63.2542C929.663 69.148 928.191 76.6994 925.248 85.9085C922.305 94.7492 918.809 101.195 914.762 105.247C911.083 108.931 903.908 110.773 893.238 110.773C879.257 110.773 872.266 106.168 872.266 96.9593C872.266 84.0667 875.026 72.6475 880.545 62.7017C886.431 52.7559 893.79 47.7831 902.62 47.7831Z"/>
<path d="M1135.41 183.156L1143.69 187.576C1156.93 193.102 1166.13 196.97 1171.28 199.18C1176.8 201.021 1182.32 202.679 1187.84 204.153C1199.61 149.635 1210.83 110.22 1221.5 85.9085C1243.95 34.7062 1272.65 9.10508 1307.6 9.10508C1325.63 9.10508 1339.79 16.104 1350.1 30.1017C1360.4 44.0994 1365.55 63.0701 1365.55 87.0136C1365.55 129.007 1351.38 165.843 1323.05 197.522C1295.09 228.833 1261.79 244.488 1223.16 244.488C1215.8 279.482 1204.95 308.031 1190.6 330.132L1201.64 329.58C1211.94 329.58 1223.53 331.606 1236.41 335.658C1267.31 345.235 1286.81 350.024 1294.91 350.024C1307.05 350.024 1321.4 343.577 1337.95 330.685C1350.46 320.739 1367.2 305.084 1388.18 283.719V330.685C1343.66 370.468 1308.89 390.359 1283.87 390.359C1268.78 390.359 1250.2 386.492 1228.13 378.756C1199.8 368.81 1181.58 363.101 1173.49 361.627C1156.93 371.573 1141.85 378.756 1128.23 383.176C1114.99 387.597 1101.93 389.807 1089.05 389.807C1085 389.807 1082.43 389.438 1081.32 388.702C1079.85 387.597 1079.12 385.386 1079.12 382.071C1079.12 364.758 1087.39 352.234 1103.95 344.498C1113.52 340.078 1129.52 336.394 1151.97 333.447C1155.65 326.817 1159.32 317.424 1163 305.268C1167.05 292.743 1172.75 271.194 1180.11 240.62L1164.66 236.2C1147.73 230.675 1136.33 225.886 1130.44 221.834C1124.92 217.414 1122.16 211.704 1122.16 204.705C1122.16 194.759 1123.64 186.471 1126.58 179.841L1135.41 183.156ZM1233.65 205.81C1260.14 205.81 1282.4 192.918 1300.43 167.132C1316.98 143.189 1325.26 115.562 1325.26 84.2508C1325.26 60.6757 1318.45 48.8881 1304.84 48.8881C1277.98 48.8881 1254.25 101.195 1233.65 205.81Z"/>
<path d="M1672.95 283.719V330.685C1660.08 340.631 1644.81 345.603 1627.15 345.603C1616.84 345.603 1607.46 343.577 1599 339.525C1590.91 335.473 1582.26 328.659 1573.06 319.081C1546.57 366.6 1512.54 390.359 1470.96 390.359C1448.89 390.359 1431.59 383.36 1419.08 369.363C1406.57 355.365 1400.32 335.658 1400.32 310.241C1400.32 269.353 1412.28 235.463 1436.19 208.573C1460.47 181.314 1492.3 167.685 1531.67 167.685L1529.46 199.18C1501.87 203.232 1481.63 214.467 1468.75 232.885C1455.88 250.934 1449.44 274.694 1449.44 304.163C1449.44 337.684 1460.29 354.444 1482 354.444C1495.61 354.444 1508.67 347.077 1521.18 332.342C1534.06 317.24 1542.34 299.558 1546.02 279.298C1543.81 271.563 1542.34 265.853 1541.6 262.169C1541.24 258.486 1541.05 254.434 1541.05 250.014C1541.05 240.068 1541.97 229.201 1543.81 217.414C1545.65 205.626 1549.15 195.496 1554.3 187.024H1591.27C1593.11 194.023 1594.22 200.469 1594.59 206.363C1594.95 211.888 1595.14 216.308 1595.14 219.624C1595.14 239.884 1591.83 260.696 1585.2 282.061C1602.86 300.111 1617.58 309.136 1629.35 309.136C1643.7 309.136 1658.24 300.663 1672.95 283.719Z"/>
<path d="M1812.58 377.098L1820.86 337.315L1812.58 346.156C1796.76 362.364 1783.33 373.783 1772.3 380.414C1761.63 387.044 1751.14 390.359 1740.84 390.359C1723.18 390.359 1708.64 382.808 1697.24 367.705C1685.83 352.602 1680.13 333.447 1680.13 310.241C1680.13 273.405 1691.72 240.436 1714.9 211.336C1738.08 182.235 1764.57 167.685 1794.37 167.685C1804.3 167.685 1812.58 169.895 1819.21 174.315C1826.2 178.736 1835.95 188.129 1848.46 202.495L1856.18 167.685H1901.44L1864.46 347.261C1869.61 343.577 1876.6 337.499 1885.43 329.027C1913.03 303.242 1929.22 288.139 1934 283.719V330.685C1907.51 352.05 1881.2 373.231 1855.08 394.227C1848.46 431.8 1839.81 458.322 1829.14 473.793C1818.84 489.264 1803.75 497 1783.88 497C1768.8 497 1755.92 492.396 1745.25 483.186C1734.95 474.346 1729.8 464.4 1729.8 453.349C1729.8 442.667 1734.77 432.168 1744.7 421.854C1750.22 415.96 1767.7 403.989 1797.13 385.939L1812.58 377.098ZM1803.75 418.539C1793.82 424.064 1785.36 429.59 1778.37 435.115C1771.74 441.009 1768.43 446.35 1768.43 451.139C1768.43 455.928 1769.54 459.795 1771.74 462.742C1773.95 465.689 1777.45 467.163 1782.23 467.163C1785.54 467.163 1788.85 463.479 1792.16 456.112C1795.84 449.113 1799.71 436.589 1803.75 418.539ZM1832.45 283.719L1841.83 238.41C1833.74 227.728 1827.85 220.545 1824.17 216.861C1814.97 206.915 1805.96 201.942 1797.13 201.942C1782.41 201.942 1768.25 209.494 1754.63 224.597C1737.34 243.751 1728.7 269.353 1728.7 301.4C1728.7 316.503 1731.27 328.843 1736.42 338.42C1741.57 347.998 1748.38 352.786 1756.84 352.786C1764.94 352.786 1775.42 347.077 1788.3 335.658C1798.23 327.185 1807.8 317.055 1817 305.268L1826.38 293.664C1828.22 291.823 1830.06 289.06 1831.9 285.376C1831.9 285.008 1832.08 284.455 1832.45 283.719Z"/>
</mask>
<path d="M100.166 250.014C73.6754 245.225 52.5195 233.621 36.6985 215.203C21.2455 196.785 13.5189 173.947 13.5189 146.688C13.5189 108.379 28.604 75.7785 58.7743 48.8881C89.3124 21.6294 126.473 8 170.257 8C216.616 8 254.697 22.9186 284.499 52.7559C316.141 84.435 331.962 126.612 331.962 179.288C331.962 239.331 316.325 289.981 285.051 331.237C255.984 369.915 223.239 389.254 186.814 389.254C174.672 389.254 159.955 385.202 142.662 377.098C120.218 366.416 106.053 360.338 100.166 358.864C85.4491 371.02 73.3075 379.308 63.7413 383.729C54.1751 388.149 43.3212 390.359 31.1796 390.359C15.7265 390.359 8 384.281 8 372.125C8 362.18 13.151 352.602 23.453 343.393C36.6985 331.606 55.2789 324.054 79.1943 320.739C87.2888 307.11 94.2794 283.534 100.166 250.014ZM122.794 320.186C147.813 328.659 173.016 336.947 198.403 345.051C222.319 345.051 243.659 328.843 262.423 296.427C281.188 264.011 290.57 227.175 290.57 185.919C290.57 143.189 279.532 109.299 257.456 84.2508C235.748 58.8339 206.314 46.1254 169.153 46.1254C137.879 46.1254 111.204 55.7028 89.1284 74.8576C67.0527 94.0124 56.0148 117.588 56.0148 145.583C56.0148 179.472 73.4914 202.311 108.445 214.098C119.483 176.525 127.945 148.53 133.832 130.112C139.719 111.325 146.157 94.1966 153.148 78.7254L170.809 77.6203C174.856 77.6203 179.087 77.9887 183.502 78.7254C187.917 79.0938 192.333 79.4622 196.748 79.8305C189.389 99.3537 181.663 123.85 173.568 153.319C166.946 178.367 161.427 202.311 157.011 225.149C163.266 225.149 167.497 225.149 169.705 225.149C176.328 225.149 183.318 224.597 190.677 223.492C188.837 238.594 174.672 248.172 148.181 252.224C141.19 279.482 132.728 302.137 122.794 320.186Z" fill="#FF83DC"/>
<path d="M584.729 283.719V330.132C528.068 371.02 473.063 391.464 419.713 391.464C400.213 391.464 385.312 383.545 375.01 367.705C365.075 351.497 360.108 333.263 360.108 313.003C360.108 272.852 372.066 237.305 395.982 206.363C419.897 175.052 447.492 159.397 478.766 159.397C508.2 159.397 522.917 173.394 522.917 201.39C522.917 226.438 510.04 248.356 484.285 267.142C470.671 277.088 448.595 288.323 418.057 300.847L406.468 305.82V308.031C406.468 320.555 408.491 330.685 412.538 338.42C418.425 349.84 427.807 355.549 440.685 355.549C462.761 355.549 485.02 350.024 507.464 338.973C529.908 327.554 555.663 309.136 584.729 283.719ZM411.986 269.353C434.798 260.88 453.011 251.119 466.624 240.068C480.237 228.649 487.044 217.414 487.044 206.363C487.044 198.259 482.813 194.207 474.351 194.207C462.209 194.207 449.883 201.758 437.374 216.861C424.864 231.595 416.402 249.093 411.986 269.353Z" fill="#FF83DC"/>
<path d="M583.626 287.034L592.456 276.536C608.277 259.223 621.706 243.199 632.744 228.464C645.254 211.888 656.844 194.391 667.513 175.973C664.57 173.394 663.098 170.632 663.098 167.685C663.098 155.529 665.858 144.294 671.377 133.98C677.264 123.666 685.726 118.508 696.764 118.508L722.151 119.614C729.142 121.087 732.637 124.586 732.637 130.112C732.637 136.742 729.142 145.031 722.151 154.976C715.528 164.922 709.273 174.131 703.387 182.603C714.792 196.601 722.519 208.389 726.566 217.966C730.981 227.175 733.189 237.121 733.189 247.803C733.189 264.011 730.245 281.508 724.359 300.295C718.84 318.713 710.929 335.842 700.627 351.681C717.184 351.681 740.363 339.525 770.166 315.214C782.675 304.899 795.185 294.401 807.695 283.719V330.685L799.416 337.315C776.237 354.26 757.104 366.6 742.019 374.336C727.302 382.071 714.424 385.939 703.387 385.939C695.66 385.939 685.542 383.36 673.032 378.203C666.778 381.887 659.787 384.65 652.06 386.492C644.702 388.333 635.504 389.254 624.466 389.254C616.003 389.254 610.116 388.149 606.805 385.939C603.862 383.36 602.39 378.756 602.39 372.125C602.39 360.338 603.494 351.497 605.701 345.603C608.277 339.71 611.956 336.763 616.739 336.763C621.154 336.763 627.409 337.499 635.504 338.973C643.598 340.446 649.669 341.183 653.716 341.183C660.339 341.183 668.065 329.211 676.896 305.268C686.094 281.324 690.693 262.169 690.693 247.803C690.693 241.91 690.141 236.2 689.037 230.675C687.934 225.149 685.358 219.44 681.311 213.546C661.811 242.646 646.725 263.827 636.055 277.088C623.546 292.928 606.069 311.53 583.626 332.895V287.034Z" fill="#FF83DC"/>
<path d="M956.706 283.719V330.685C942.357 345.051 925.248 358.128 905.38 369.915C881.832 383.913 861.964 390.912 845.775 390.912C832.162 390.912 823.148 381.334 818.732 362.18C816.525 352.602 815.421 337.499 815.421 316.871C815.421 296.98 818.548 274.141 824.803 248.356C831.058 222.571 839.704 195.68 850.742 167.685H897.101L891.582 184.261C880.177 218.519 872.082 245.962 867.299 266.59C862.516 287.218 860.125 305.084 860.125 320.186C860.125 337.868 863.62 346.708 870.611 346.708C879.809 346.708 897.469 335.658 923.592 313.556C934.63 303.979 945.668 294.033 956.706 283.719ZM902.62 47.7831C920.649 47.7831 929.663 52.9401 929.663 63.2542C929.663 69.148 928.191 76.6994 925.248 85.9085C922.305 94.7492 918.809 101.195 914.762 105.247C911.083 108.931 903.908 110.773 893.238 110.773C879.257 110.773 872.266 106.168 872.266 96.9593C872.266 84.0667 875.026 72.6475 880.545 62.7017C886.431 52.7559 893.79 47.7831 902.62 47.7831Z" fill="#FF83DC"/>
<path d="M1135.41 183.156L1143.69 187.576C1156.93 193.102 1166.13 196.97 1171.28 199.18C1176.8 201.021 1182.32 202.679 1187.84 204.153C1199.61 149.635 1210.83 110.22 1221.5 85.9085C1243.95 34.7062 1272.65 9.10508 1307.6 9.10508C1325.63 9.10508 1339.79 16.104 1350.1 30.1017C1360.4 44.0994 1365.55 63.0701 1365.55 87.0136C1365.55 129.007 1351.38 165.843 1323.05 197.522C1295.09 228.833 1261.79 244.488 1223.16 244.488C1215.8 279.482 1204.95 308.031 1190.6 330.132L1201.64 329.58C1211.94 329.58 1223.53 331.606 1236.41 335.658C1267.31 345.235 1286.81 350.024 1294.91 350.024C1307.05 350.024 1321.4 343.577 1337.95 330.685C1350.46 320.739 1367.2 305.084 1388.18 283.719V330.685C1343.66 370.468 1308.89 390.359 1283.87 390.359C1268.78 390.359 1250.2 386.492 1228.13 378.756C1199.8 368.81 1181.58 363.101 1173.49 361.627C1156.93 371.573 1141.85 378.756 1128.23 383.176C1114.99 387.597 1101.93 389.807 1089.05 389.807C1085 389.807 1082.43 389.438 1081.32 388.702C1079.85 387.597 1079.12 385.386 1079.12 382.071C1079.12 364.758 1087.39 352.234 1103.95 344.498C1113.52 340.078 1129.52 336.394 1151.97 333.447C1155.65 326.817 1159.32 317.424 1163 305.268C1167.05 292.743 1172.75 271.194 1180.11 240.62L1164.66 236.2C1147.73 230.675 1136.33 225.886 1130.44 221.834C1124.92 217.414 1122.16 211.704 1122.16 204.705C1122.16 194.759 1123.64 186.471 1126.58 179.841L1135.41 183.156ZM1233.65 205.81C1260.14 205.81 1282.4 192.918 1300.43 167.132C1316.98 143.189 1325.26 115.562 1325.26 84.2508C1325.26 60.6757 1318.45 48.8881 1304.84 48.8881C1277.98 48.8881 1254.25 101.195 1233.65 205.81Z" fill="#FF83DC"/>
<path d="M1672.95 283.719V330.685C1660.08 340.631 1644.81 345.603 1627.15 345.603C1616.84 345.603 1607.46 343.577 1599 339.525C1590.91 335.473 1582.26 328.659 1573.06 319.081C1546.57 366.6 1512.54 390.359 1470.96 390.359C1448.89 390.359 1431.59 383.36 1419.08 369.363C1406.57 355.365 1400.32 335.658 1400.32 310.241C1400.32 269.353 1412.28 235.463 1436.19 208.573C1460.47 181.314 1492.3 167.685 1531.67 167.685L1529.46 199.18C1501.87 203.232 1481.63 214.467 1468.75 232.885C1455.88 250.934 1449.44 274.694 1449.44 304.163C1449.44 337.684 1460.29 354.444 1482 354.444C1495.61 354.444 1508.67 347.077 1521.18 332.342C1534.06 317.24 1542.34 299.558 1546.02 279.298C1543.81 271.563 1542.34 265.853 1541.6 262.169C1541.24 258.486 1541.05 254.434 1541.05 250.014C1541.05 240.068 1541.97 229.201 1543.81 217.414C1545.65 205.626 1549.15 195.496 1554.3 187.024H1591.27C1593.11 194.023 1594.22 200.469 1594.59 206.363C1594.95 211.888 1595.14 216.308 1595.14 219.624C1595.14 239.884 1591.83 260.696 1585.2 282.061C1602.86 300.111 1617.58 309.136 1629.35 309.136C1643.7 309.136 1658.24 300.663 1672.95 283.719Z" fill="#FF83DC"/>
<path d="M1812.58 377.098L1820.86 337.315L1812.58 346.156C1796.76 362.364 1783.33 373.783 1772.3 380.414C1761.63 387.044 1751.14 390.359 1740.84 390.359C1723.18 390.359 1708.64 382.808 1697.24 367.705C1685.83 352.602 1680.13 333.447 1680.13 310.241C1680.13 273.405 1691.72 240.436 1714.9 211.336C1738.08 182.235 1764.57 167.685 1794.37 167.685C1804.3 167.685 1812.58 169.895 1819.21 174.315C1826.2 178.736 1835.95 188.129 1848.46 202.495L1856.18 167.685H1901.44L1864.46 347.261C1869.61 343.577 1876.6 337.499 1885.43 329.027C1913.03 303.242 1929.22 288.139 1934 283.719V330.685C1907.51 352.05 1881.2 373.231 1855.08 394.227C1848.46 431.8 1839.81 458.322 1829.14 473.793C1818.84 489.264 1803.75 497 1783.88 497C1768.8 497 1755.92 492.396 1745.25 483.186C1734.95 474.346 1729.8 464.4 1729.8 453.349C1729.8 442.667 1734.77 432.168 1744.7 421.854C1750.22 415.96 1767.7 403.989 1797.13 385.939L1812.58 377.098ZM1803.75 418.539C1793.82 424.064 1785.36 429.59 1778.37 435.115C1771.74 441.009 1768.43 446.35 1768.43 451.139C1768.43 455.928 1769.54 459.795 1771.74 462.742C1773.95 465.689 1777.45 467.163 1782.23 467.163C1785.54 467.163 1788.85 463.479 1792.16 456.112C1795.84 449.113 1799.71 436.589 1803.75 418.539ZM1832.45 283.719L1841.83 238.41C1833.74 227.728 1827.85 220.545 1824.17 216.861C1814.97 206.915 1805.96 201.942 1797.13 201.942C1782.41 201.942 1768.25 209.494 1754.63 224.597C1737.34 243.751 1728.7 269.353 1728.7 301.4C1728.7 316.503 1731.27 328.843 1736.42 338.42C1741.57 347.998 1748.38 352.786 1756.84 352.786C1764.94 352.786 1775.42 347.077 1788.3 335.658C1798.23 327.185 1807.8 317.055 1817 305.268L1826.38 293.664C1828.22 291.823 1830.06 289.06 1831.9 285.376C1831.9 285.008 1832.08 284.455 1832.45 283.719Z" fill="#FF83DC"/>
<path d="M100.166 250.014C73.6754 245.225 52.5195 233.621 36.6985 215.203C21.2455 196.785 13.5189 173.947 13.5189 146.688C13.5189 108.379 28.604 75.7785 58.7743 48.8881C89.3124 21.6294 126.473 8 170.257 8C216.616 8 254.697 22.9186 284.499 52.7559C316.141 84.435 331.962 126.612 331.962 179.288C331.962 239.331 316.325 289.981 285.051 331.237C255.984 369.915 223.239 389.254 186.814 389.254C174.672 389.254 159.955 385.202 142.662 377.098C120.218 366.416 106.053 360.338 100.166 358.864C85.4491 371.02 73.3075 379.308 63.7413 383.729C54.1751 388.149 43.3212 390.359 31.1796 390.359C15.7265 390.359 8 384.281 8 372.125C8 362.18 13.151 352.602 23.453 343.393C36.6985 331.606 55.2789 324.054 79.1943 320.739C87.2888 307.11 94.2794 283.534 100.166 250.014ZM122.794 320.186C147.813 328.659 173.016 336.947 198.403 345.051C222.319 345.051 243.659 328.843 262.423 296.427C281.188 264.011 290.57 227.175 290.57 185.919C290.57 143.189 279.532 109.299 257.456 84.2508C235.748 58.8339 206.314 46.1254 169.153 46.1254C137.879 46.1254 111.204 55.7028 89.1284 74.8576C67.0527 94.0124 56.0148 117.588 56.0148 145.583C56.0148 179.472 73.4914 202.311 108.445 214.098C119.483 176.525 127.945 148.53 133.832 130.112C139.719 111.325 146.157 94.1966 153.148 78.7254L170.809 77.6203C174.856 77.6203 179.087 77.9887 183.502 78.7254C187.917 79.0938 192.333 79.4622 196.748 79.8305C189.389 99.3537 181.663 123.85 173.568 153.319C166.946 178.367 161.427 202.311 157.011 225.149C163.266 225.149 167.497 225.149 169.705 225.149C176.328 225.149 183.318 224.597 190.677 223.492C188.837 238.594 174.672 248.172 148.181 252.224C141.19 279.482 132.728 302.137 122.794 320.186Z" stroke="#2F1616" stroke-width="16" stroke-linejoin="round" mask="url(#path-1-outside-1_1203_38836)"/>
<path d="M584.729 283.719V330.132C528.068 371.02 473.063 391.464 419.713 391.464C400.213 391.464 385.312 383.545 375.01 367.705C365.075 351.497 360.108 333.263 360.108 313.003C360.108 272.852 372.066 237.305 395.982 206.363C419.897 175.052 447.492 159.397 478.766 159.397C508.2 159.397 522.917 173.394 522.917 201.39C522.917 226.438 510.04 248.356 484.285 267.142C470.671 277.088 448.595 288.323 418.057 300.847L406.468 305.82V308.031C406.468 320.555 408.491 330.685 412.538 338.42C418.425 349.84 427.807 355.549 440.685 355.549C462.761 355.549 485.02 350.024 507.464 338.973C529.908 327.554 555.663 309.136 584.729 283.719ZM411.986 269.353C434.798 260.88 453.011 251.119 466.624 240.068C480.237 228.649 487.044 217.414 487.044 206.363C487.044 198.259 482.813 194.207 474.351 194.207C462.209 194.207 449.883 201.758 437.374 216.861C424.864 231.595 416.402 249.093 411.986 269.353Z" stroke="#2F1616" stroke-width="16" stroke-linejoin="round" mask="url(#path-1-outside-1_1203_38836)"/>
<path d="M583.626 287.034L592.456 276.536C608.277 259.223 621.706 243.199 632.744 228.464C645.254 211.888 656.844 194.391 667.513 175.973C664.57 173.394 663.098 170.632 663.098 167.685C663.098 155.529 665.858 144.294 671.377 133.98C677.264 123.666 685.726 118.508 696.764 118.508L722.151 119.614C729.142 121.087 732.637 124.586 732.637 130.112C732.637 136.742 729.142 145.031 722.151 154.976C715.528 164.922 709.273 174.131 703.387 182.603C714.792 196.601 722.519 208.389 726.566 217.966C730.981 227.175 733.189 237.121 733.189 247.803C733.189 264.011 730.245 281.508 724.359 300.295C718.84 318.713 710.929 335.842 700.627 351.681C717.184 351.681 740.363 339.525 770.166 315.214C782.675 304.899 795.185 294.401 807.695 283.719V330.685L799.416 337.315C776.237 354.26 757.104 366.6 742.019 374.336C727.302 382.071 714.424 385.939 703.387 385.939C695.66 385.939 685.542 383.36 673.032 378.203C666.778 381.887 659.787 384.65 652.06 386.492C644.702 388.333 635.504 389.254 624.466 389.254C616.003 389.254 610.116 388.149 606.805 385.939C603.862 383.36 602.39 378.756 602.39 372.125C602.39 360.338 603.494 351.497 605.701 345.603C608.277 339.71 611.956 336.763 616.739 336.763C621.154 336.763 627.409 337.499 635.504 338.973C643.598 340.446 649.669 341.183 653.716 341.183C660.339 341.183 668.065 329.211 676.896 305.268C686.094 281.324 690.693 262.169 690.693 247.803C690.693 241.91 690.141 236.2 689.037 230.675C687.934 225.149 685.358 219.44 681.311 213.546C661.811 242.646 646.725 263.827 636.055 277.088C623.546 292.928 606.069 311.53 583.626 332.895V287.034Z" stroke="#2F1616" stroke-width="16" stroke-linejoin="round" mask="url(#path-1-outside-1_1203_38836)"/>
<path d="M956.706 283.719V330.685C942.357 345.051 925.248 358.128 905.38 369.915C881.832 383.913 861.964 390.912 845.775 390.912C832.162 390.912 823.148 381.334 818.732 362.18C816.525 352.602 815.421 337.499 815.421 316.871C815.421 296.98 818.548 274.141 824.803 248.356C831.058 222.571 839.704 195.68 850.742 167.685H897.101L891.582 184.261C880.177 218.519 872.082 245.962 867.299 266.59C862.516 287.218 860.125 305.084 860.125 320.186C860.125 337.868 863.62 346.708 870.611 346.708C879.809 346.708 897.469 335.658 923.592 313.556C934.63 303.979 945.668 294.033 956.706 283.719ZM902.62 47.7831C920.649 47.7831 929.663 52.9401 929.663 63.2542C929.663 69.148 928.191 76.6994 925.248 85.9085C922.305 94.7492 918.809 101.195 914.762 105.247C911.083 108.931 903.908 110.773 893.238 110.773C879.257 110.773 872.266 106.168 872.266 96.9593C872.266 84.0667 875.026 72.6475 880.545 62.7017C886.431 52.7559 893.79 47.7831 902.62 47.7831Z" stroke="#2F1616" stroke-width="16" stroke-linejoin="round" mask="url(#path-1-outside-1_1203_38836)"/>
<path d="M1135.41 183.156L1143.69 187.576C1156.93 193.102 1166.13 196.97 1171.28 199.18C1176.8 201.021 1182.32 202.679 1187.84 204.153C1199.61 149.635 1210.83 110.22 1221.5 85.9085C1243.95 34.7062 1272.65 9.10508 1307.6 9.10508C1325.63 9.10508 1339.79 16.104 1350.1 30.1017C1360.4 44.0994 1365.55 63.0701 1365.55 87.0136C1365.55 129.007 1351.38 165.843 1323.05 197.522C1295.09 228.833 1261.79 244.488 1223.16 244.488C1215.8 279.482 1204.95 308.031 1190.6 330.132L1201.64 329.58C1211.94 329.58 1223.53 331.606 1236.41 335.658C1267.31 345.235 1286.81 350.024 1294.91 350.024C1307.05 350.024 1321.4 343.577 1337.95 330.685C1350.46 320.739 1367.2 305.084 1388.18 283.719V330.685C1343.66 370.468 1308.89 390.359 1283.87 390.359C1268.78 390.359 1250.2 386.492 1228.13 378.756C1199.8 368.81 1181.58 363.101 1173.49 361.627C1156.93 371.573 1141.85 378.756 1128.23 383.176C1114.99 387.597 1101.93 389.807 1089.05 389.807C1085 389.807 1082.43 389.438 1081.32 388.702C1079.85 387.597 1079.12 385.386 1079.12 382.071C1079.12 364.758 1087.39 352.234 1103.95 344.498C1113.52 340.078 1129.52 336.394 1151.97 333.447C1155.65 326.817 1159.32 317.424 1163 305.268C1167.05 292.743 1172.75 271.194 1180.11 240.62L1164.66 236.2C1147.73 230.675 1136.33 225.886 1130.44 221.834C1124.92 217.414 1122.16 211.704 1122.16 204.705C1122.16 194.759 1123.64 186.471 1126.58 179.841L1135.41 183.156ZM1233.65 205.81C1260.14 205.81 1282.4 192.918 1300.43 167.132C1316.98 143.189 1325.26 115.562 1325.26 84.2508C1325.26 60.6757 1318.45 48.8881 1304.84 48.8881C1277.98 48.8881 1254.25 101.195 1233.65 205.81Z" stroke="#2F1616" stroke-width="16" stroke-linejoin="round" mask="url(#path-1-outside-1_1203_38836)"/>
<path d="M1672.95 283.719V330.685C1660.08 340.631 1644.81 345.603 1627.15 345.603C1616.84 345.603 1607.46 343.577 1599 339.525C1590.91 335.473 1582.26 328.659 1573.06 319.081C1546.57 366.6 1512.54 390.359 1470.96 390.359C1448.89 390.359 1431.59 383.36 1419.08 369.363C1406.57 355.365 1400.32 335.658 1400.32 310.241C1400.32 269.353 1412.28 235.463 1436.19 208.573C1460.47 181.314 1492.3 167.685 1531.67 167.685L1529.46 199.18C1501.87 203.232 1481.63 214.467 1468.75 232.885C1455.88 250.934 1449.44 274.694 1449.44 304.163C1449.44 337.684 1460.29 354.444 1482 354.444C1495.61 354.444 1508.67 347.077 1521.18 332.342C1534.06 317.24 1542.34 299.558 1546.02 279.298C1543.81 271.563 1542.34 265.853 1541.6 262.169C1541.24 258.486 1541.05 254.434 1541.05 250.014C1541.05 240.068 1541.97 229.201 1543.81 217.414C1545.65 205.626 1549.15 195.496 1554.3 187.024H1591.27C1593.11 194.023 1594.22 200.469 1594.59 206.363C1594.95 211.888 1595.14 216.308 1595.14 219.624C1595.14 239.884 1591.83 260.696 1585.2 282.061C1602.86 300.111 1617.58 309.136 1629.35 309.136C1643.7 309.136 1658.24 300.663 1672.95 283.719Z" stroke="#2F1616" stroke-width="16" stroke-linejoin="round" mask="url(#path-1-outside-1_1203_38836)"/>
<path d="M1812.58 377.098L1820.86 337.315L1812.58 346.156C1796.76 362.364 1783.33 373.783 1772.3 380.414C1761.63 387.044 1751.14 390.359 1740.84 390.359C1723.18 390.359 1708.64 382.808 1697.24 367.705C1685.83 352.602 1680.13 333.447 1680.13 310.241C1680.13 273.405 1691.72 240.436 1714.9 211.336C1738.08 182.235 1764.57 167.685 1794.37 167.685C1804.3 167.685 1812.58 169.895 1819.21 174.315C1826.2 178.736 1835.95 188.129 1848.46 202.495L1856.18 167.685H1901.44L1864.46 347.261C1869.61 343.577 1876.6 337.499 1885.43 329.027C1913.03 303.242 1929.22 288.139 1934 283.719V330.685C1907.51 352.05 1881.2 373.231 1855.08 394.227C1848.46 431.8 1839.81 458.322 1829.14 473.793C1818.84 489.264 1803.75 497 1783.88 497C1768.8 497 1755.92 492.396 1745.25 483.186C1734.95 474.346 1729.8 464.4 1729.8 453.349C1729.8 442.667 1734.77 432.168 1744.7 421.854C1750.22 415.96 1767.7 403.989 1797.13 385.939L1812.58 377.098ZM1803.75 418.539C1793.82 424.064 1785.36 429.59 1778.37 435.115C1771.74 441.009 1768.43 446.35 1768.43 451.139C1768.43 455.928 1769.54 459.795 1771.74 462.742C1773.95 465.689 1777.45 467.163 1782.23 467.163C1785.54 467.163 1788.85 463.479 1792.16 456.112C1795.84 449.113 1799.71 436.589 1803.75 418.539ZM1832.45 283.719L1841.83 238.41C1833.74 227.728 1827.85 220.545 1824.17 216.861C1814.97 206.915 1805.96 201.942 1797.13 201.942C1782.41 201.942 1768.25 209.494 1754.63 224.597C1737.34 243.751 1728.7 269.353 1728.7 301.4C1728.7 316.503 1731.27 328.843 1736.42 338.42C1741.57 347.998 1748.38 352.786 1756.84 352.786C1764.94 352.786 1775.42 347.077 1788.3 335.658C1798.23 327.185 1807.8 317.055 1817 305.268L1826.38 293.664C1828.22 291.823 1830.06 289.06 1831.9 285.376C1831.9 285.008 1832.08 284.455 1832.45 283.719Z" stroke="#2F1616" stroke-width="16" stroke-linejoin="round" mask="url(#path-1-outside-1_1203_38836)"/>
</svg>
